<svg width="31.264542" height="29.000000" viewBox="0 0 31.2645 29" fill="none" xmlns="http://www.w3.org/2000/svg" xmlns:xlink="http://www.w3.org/1999/xlink">
	<desc>
			Created with Pixso.
	</desc>
	<defs/>
	<path d="M31.17 2.7C21.84 -0.62 11.7 -0.89 2.21 1.92C1.83 2.01 1.48 2.17 1.17 2.4C0.85 2.63 0.59 2.92 0.39 3.26C0.2 3.59 0.07 3.96 0.02 4.35C-0.03 4.73 0 5.12 0.1 5.5C0.62 7.58 1.38 9.98 2.29 12.15C2.3 12.2 2.33 12.18 2.33 12.13C2.2 11.11 2.98 9.82 4.52 9.35C11.9 7 19.84 7.11 27.16 9.65C27.43 9.75 27.71 9.78 28 9.76C28.28 9.74 28.56 9.67 28.82 9.54C29.07 9.41 29.3 9.23 29.48 9.01C29.67 8.79 29.8 8.54 29.89 8.27C30.8 5.34 31.17 3.35 31.26 2.85C31.27 2.76 31.19 2.73 31.17 2.7L31.17 2.7ZM8.66 9.14C7.55 9.38 6 9.75 4.84 10.13C2.52 10.93 2.63 13.75 3.86 14.65C3.95 14.13 4.52 13.42 5.14 13.18C7.46 12.27 9.94 11.72 12.46 11.5C11.18 10.98 9.93 10.24 8.68 9.14L8.66 9.14ZM27.13 14.79C23.8 13.23 20.18 12.35 16.51 12.2C12.83 12.06 9.16 12.65 5.71 13.95C4.61 14.36 3.91 15.71 4.61 16.98C5.81 19.17 7.18 21.26 8.71 23.23C8.49 22.48 8.87 21.07 10.36 20.61C14.46 19.35 18.77 19.89 21.63 21.05C22.44 21.37 23.59 21.17 24.23 20.21C25.32 18.53 26.32 16.78 27.21 14.98C27.25 14.9 27.21 14.84 27.13 14.79ZM20.48 24.91C19.27 24.31 18.18 23.51 17.22 22.57C16.78 22.12 16.13 21.49 15.44 20.73C13.87 20.73 12.35 20.89 10.73 21.41C9.21 21.88 9.07 23.63 9.73 24.54C10.85 25.93 11.64 26.68 12.89 27.97C13.55 28.62 14.44 28.99 15.37 29C16.3 29 17.19 28.64 17.86 28C18.84 27.02 19.44 26.37 20.54 25.12C20.61 25.05 20.58 24.94 20.47 24.91L20.48 24.91Z" fill="#000000" fill-opacity="1.000000" fill-rule="nonzero"/>
</svg>
